<svg width="24" height="24" viewBox="0 0 24 24" fill="none" xmlns="http://www.w3.org/2000/svg">
<path d="M16.0934 10.7084V8.82603C16.0934 8.55477 15.958 8.31547 15.7515 8.17091C16.4775 5.07129 15.4129 3.24306 14.2325 0.485018C14.1066 0.190782 13.8174 0 13.4974 0H10.5035C10.1835 0 9.89424 0.190782 9.76838 0.485018C8.61581 3.17818 7.51621 5.04011 8.24981 8.17081C8.04323 8.31538 7.90776 8.55472 7.90776 8.82599V10.7073C5.46622 14.1169 5.05269 18.8192 7.28296 22.7417C8.01796 24.0347 9.47658 24.3161 10.6389 23.6554C11.1881 23.3433 11.5979 22.86 11.7927 22.2945C12.0145 21.6506 11.9364 20.9435 11.5726 20.3033C10.3275 18.1129 10.536 15.4301 12.0012 13.4694C13.4597 15.4061 13.6767 18.1075 12.4286 20.3034C12.0647 20.9436 11.9863 21.6506 12.2076 22.2941C12.4021 22.8594 12.8115 23.3426 13.3606 23.6547C14.5268 24.3175 15.9843 24.0317 16.7177 22.7417C18.9329 18.8457 18.5507 14.1377 16.0934 10.7084ZM9.5071 10.1703V9.62573H14.4941V10.1703C13.9673 10.1703 10.0357 10.1703 9.5071 10.1703ZM11.7197 5.22691C11.7197 5.07204 11.8457 4.94604 12.0006 4.94604C12.1555 4.94604 12.2815 5.07199 12.2815 5.22691C12.2815 5.38183 12.1555 5.50779 12.0006 5.50779C11.8457 5.50783 11.7197 5.38183 11.7197 5.22691ZM14.1402 8.02639H12.8002V6.92815C13.4381 6.62712 13.8808 5.97785 13.8808 5.22696C13.8808 4.47597 13.4381 3.82675 12.8001 3.52572V1.59933H12.9699C13.9338 3.85164 14.8487 5.39388 14.1402 8.02639ZM11.0311 1.59933H11.2008V3.52581C10.563 3.82689 10.1204 4.47606 10.1204 5.22691C10.1204 5.97781 10.5631 6.62707 11.201 6.92811V8.02634H9.8611C9.15905 5.41919 10.0443 3.90503 11.0311 1.59933ZM10.1822 21.0937C10.5836 21.8001 9.97482 22.1934 9.84872 22.2651C9.72286 22.3366 9.07476 22.6576 8.67333 21.9514C6.77947 18.6206 7.12115 14.6567 9.11437 11.7698H11.2009V11.9266C8.84686 14.5431 8.55079 18.2237 10.1822 21.0937ZM15.3273 21.9514C15.3273 21.9514 15.3273 21.9514 15.3273 21.9514C14.9259 22.6576 14.2769 22.336 14.1509 22.2644C14.0251 22.1928 13.4175 21.8002 13.819 21.0937C15.4121 18.2911 15.2058 14.6083 12.8002 11.928V11.7698H14.8862C16.8861 14.6635 17.2152 18.6309 15.3273 21.9514Z" fill="#113366"/>
</svg>
