<svg width="24" height="24" viewBox="0 0 24 24" fill="none" xmlns="http://www.w3.org/2000/svg">
<g clip-path="url(#clip0)">
<path d="M16.0932 10.7068V8.82578C16.0932 8.55456 15.9578 8.31522 15.7513 8.17066C16.4773 5.07114 15.4128 3.24296 14.2324 0.485017C14.1064 0.190782 13.8173 0 13.4973 0H10.5035C10.1835 0 9.8942 0.190782 9.76834 0.485017C8.61578 3.17808 7.51618 5.03996 8.24982 8.17056C8.04324 8.31513 7.90778 8.55442 7.90778 8.82578V10.7059C5.47693 14.1004 5.04441 18.804 7.28298 22.741C8.00992 24.0197 9.46037 24.3246 10.6389 23.6548C11.8192 22.984 12.2983 21.58 11.5725 20.3028C10.4081 18.2544 10.4357 15.6182 11.9997 13.4838C13.5796 15.6397 13.5813 18.2747 12.4285 20.3029C11.6944 21.5944 12.1955 22.992 13.3605 23.6541C14.5257 24.3164 15.9841 24.0309 16.7174 22.7411C18.9483 18.8174 18.5319 14.1098 16.0932 10.7068ZM11.7196 5.22676C11.7196 5.07189 11.8456 4.94589 12.0005 4.94589C12.1554 4.94589 12.2814 5.07184 12.2814 5.22676C12.2814 5.38168 12.1554 5.50764 12.0005 5.50764C11.8456 5.50764 11.7196 5.38168 11.7196 5.22676ZM14.1401 8.02614H12.8001V6.92791C13.438 6.62687 13.8806 5.97761 13.8806 5.22676C13.8806 4.47577 13.4379 3.8266 12.7999 3.52557V1.59928H12.9697C13.9337 3.85154 14.8485 5.39373 14.1401 8.02614ZM11.031 1.59928H11.2007V3.52571C10.5629 3.82679 10.1203 4.47596 10.1203 5.22676C10.1203 5.97761 10.563 6.62687 11.2008 6.92791V8.02614H9.86101C9.15901 5.41904 10.0443 3.90488 11.031 1.59928Z" fill="#113366"/>
</g>
<defs>
<clipPath id="clip0">
<rect width="24" height="24" fill="white"/>
</clipPath>
</defs>
</svg>
