<svg width="24" height="24" viewBox="0 0 24 24" fill="none" xmlns="http://www.w3.org/2000/svg">
<path d="M16.125 21.6094V5.39062C16.125 5.31295 16.062 5.25 15.9844 5.25H8.01562C7.93795 5.25 7.875 5.31295 7.875 5.39062V21.6094C7.875 21.687 7.93795 21.75 8.01562 21.75H15.9844C16.062 21.75 16.125 21.687 16.125 21.6094Z" fill="#113366"/>
<path d="M16.5 3H14.625V1.125C14.625 0.504844 14.1202 0 13.5 0H10.5C9.87984 0 9.375 0.504844 9.375 1.125V3H7.5C6.46594 3 5.625 3.84094 5.625 4.875V22.125C5.625 23.1591 6.46594 24 7.5 24H16.5C17.5341 24 18.375 23.1591 18.375 22.125V4.875C18.375 3.84094 17.5341 3 16.5 3ZM16.875 21.75C16.875 22.1634 16.5384 22.5 16.125 22.5H7.875C7.46156 22.5 7.125 22.1634 7.125 21.75V5.25C7.125 4.83656 7.46156 4.5 7.875 4.5H16.125C16.5384 4.5 16.875 4.83656 16.875 5.25V21.75Z" fill="#113366"/>
</svg>
