<svg width="24" height="22" viewBox="0 0 24 22" fill="none" xmlns="http://www.w3.org/2000/svg">
<path d="M12 16.6719C14.097 16.6719 15.7969 14.972 15.7969 12.875C15.7969 10.778 14.097 9.07812 12 9.07812C9.90304 9.07812 8.20312 10.778 8.20312 12.875C8.20312 14.972 9.90304 16.6719 12 16.6719Z" fill="#113366"/>
<path d="M17.5449 3.26562L17.3023 2.05236C17.1713 1.39733 16.5914 0.921875 15.9233 0.921875H8.07618C7.40821 0.921875 6.82823 1.39733 6.69726 2.05236L6.45459 3.26562H17.5449Z" fill="#113366"/>
<path d="M21.8906 4.67188C20.2395 4.67188 2.88206 4.67188 2.10938 4.67188C0.946266 4.67188 0 5.61814 0 6.78125V18.9688C0 20.1319 0.946266 21.0781 2.10938 21.0781H21.8906C23.0537 21.0781 24 20.1319 24 18.9688V6.78125C24 5.61814 23.0537 4.67188 21.8906 4.67188ZM6 9.07812H3.75C3.36169 9.07812 3.04688 8.76331 3.04688 8.375C3.04688 7.98669 3.36169 7.67188 3.75 7.67188H6C6.38831 7.67188 6.70312 7.98669 6.70312 8.375C6.70312 8.76331 6.38831 9.07812 6 9.07812ZM12 18.0781C9.13097 18.0781 6.79688 15.744 6.79688 12.875C6.79688 10.006 9.13097 7.67188 12 7.67188C14.869 7.67188 17.2031 10.006 17.2031 12.875C17.2031 15.744 14.869 18.0781 12 18.0781Z" fill="#113366"/>
</svg>
