<svg width="24" height="24" viewBox="0 0 24 24" fill="none" xmlns="http://www.w3.org/2000/svg">
<g clip-path="url(#clip0)">
<path d="M21.8906 5.67188H17.8264L17.3025 3.05236C17.1715 2.39733 16.5916 1.92188 15.9236 1.92188H8.07642C7.40845 1.92188 6.82847 2.39733 6.6975 3.05236L6.17358 5.67188H2.10938C0.946266 5.67188 0 6.61814 0 7.78125V19.9688C0 21.1319 0.946266 22.0781 2.10938 22.0781H21.8906C23.0537 22.0781 24 21.1319 24 19.9688V7.78125C24 6.61814 23.0537 5.67188 21.8906 5.67188ZM8.07642 3.32812H15.9236L16.3923 5.67188H7.60767L8.07642 3.32812ZM22.5938 19.9688C22.5938 20.3565 22.2783 20.6719 21.8906 20.6719H2.10938C1.72167 20.6719 1.40625 20.3565 1.40625 19.9688V7.78125C1.40625 7.39355 1.72167 7.07812 2.10938 7.07812H21.8906C22.2783 7.07812 22.5938 7.39355 22.5938 7.78125V19.9688Z" fill="#113366"/>
<path d="M12 8.67188C9.13097 8.67188 6.79688 11.006 6.79688 13.875C6.79688 16.744 9.13097 19.0781 12 19.0781C14.869 19.0781 17.2031 16.744 17.2031 13.875C17.2031 11.006 14.869 8.67188 12 8.67188ZM12 17.6719C9.90637 17.6719 8.20312 15.9686 8.20312 13.875C8.20312 11.7814 9.90637 10.0781 12 10.0781C14.0936 10.0781 15.7969 11.7814 15.7969 13.875C15.7969 15.9686 14.0936 17.6719 12 17.6719Z" fill="#113366"/>
<path d="M6 8.67188H3.75C3.36169 8.67188 3.04688 8.98669 3.04688 9.375C3.04688 9.76331 3.36169 10.0781 3.75 10.0781H6C6.38831 10.0781 6.70312 9.76331 6.70312 9.375C6.70312 8.98669 6.38831 8.67188 6 8.67188Z" fill="#113366"/>
</g>
<defs>
<clipPath id="clip0">
<rect width="24" height="24" fill="white"/>
</clipPath>
</defs>
</svg>
