<svg width="24" height="24" viewBox="0 0 24 24" fill="none" xmlns="http://www.w3.org/2000/svg">
<path d="M19.96 8.96C19.29 8.22 18.28 7.79 16.88 7.64V6.88C16.88 5.51 16.3 4.19 15.28 3.27C14.25 2.33 12.91 1.89 11.52 2.02C9.12999 2.25 7.11999 4.56 7.11999 7.06V7.64C5.71999 7.79 4.70999 8.22 4.03999 8.96C3.06999 10.04 3.09999 11.48 3.20999 12.48L3.90999 18.05C4.11999 20 4.90999 22 9.20999 22H14.79C19.09 22 19.88 20 20.09 18.06L20.79 12.47C20.9 11.48 20.92 10.04 19.96 8.96ZM11.66 3.41C12.66 3.32 13.61 3.63 14.35 4.3C15.08 4.96 15.49 5.9 15.49 6.88V7.58H8.50999V7.06C8.50999 5.28 9.97999 3.57 11.66 3.41ZM8.41999 13.15H8.40999C7.85999 13.15 7.40999 12.7 7.40999 12.15C7.40999 11.6 7.85999 11.15 8.40999 11.15C8.96999 11.15 9.41999 11.6 9.41999 12.15C9.41999 12.7 8.96999 13.15 8.41999 13.15ZM15.42 13.15H15.41C14.86 13.15 14.41 12.7 14.41 12.15C14.41 11.6 14.86 11.15 15.41 11.15C15.97 11.15 16.42 11.6 16.42 12.15C16.42 12.7 15.97 13.15 15.42 13.15Z" fill="#C2C2C2"/>
</svg>
