<svg width="25" height="24" viewBox="0 0 25 24" fill="none" xmlns="http://www.w3.org/2000/svg">
<path d="M22.5 8.52V3.98C22.5 2.57 21.86 2 20.27 2H16.23C14.64 2 14 2.57 14 3.98V8.51C14 9.93 14.64 10.49 16.23 10.49H20.27C21.86 10.5 22.5 9.93 22.5 8.52Z" fill="#C2C2C2"/>
<path d="M22.5 19.77V15.73C22.5 14.14 21.86 13.5 20.27 13.5H16.23C14.64 13.5 14 14.14 14 15.73V19.77C14 21.36 14.64 22 16.23 22H20.27C21.86 22 22.5 21.36 22.5 19.77Z" fill="#C2C2C2"/>
<path d="M11 8.52V3.98C11 2.57 10.36 2 8.77 2H4.73C3.14 2 2.5 2.57 2.5 3.98V8.51C2.5 9.93 3.14 10.49 4.73 10.49H8.77C10.36 10.5 11 9.93 11 8.52Z" fill="#C2C2C2"/>
<path d="M11 19.77V15.73C11 14.14 10.36 13.5 8.77 13.5H4.73C3.14 13.5 2.5 14.14 2.5 15.73V19.77C2.5 21.36 3.14 22 4.73 22H8.77C10.36 22 11 21.36 11 19.77Z" fill="#C2C2C2"/>
</svg>
