<svg width="20" height="20" viewBox="0 0 20 20" fill="none" xmlns="http://www.w3.org/2000/svg">
<path d="M16.6667 6.875V15C16.6667 17.5 15.175 18.3333 13.3333 18.3333H6.66666C4.82499 18.3333 3.33333 17.5 3.33333 15V6.875C3.33333 4.16667 4.82499 3.54167 6.66666 3.54167C6.66666 4.05833 6.87497 4.525 7.21664 4.86667C7.55831 5.20833 8.02499 5.41667 8.54166 5.41667H11.4583C12.4917 5.41667 13.3333 4.575 13.3333 3.54167C15.175 3.54167 16.6667 4.16667 16.6667 6.875Z" stroke="#292D32" stroke-width="1.5" stroke-linecap="round" stroke-linejoin="round"/>
<path d="M13.3333 3.54167C13.3333 4.575 12.4917 5.41667 11.4583 5.41667H8.54166C8.02499 5.41667 7.5583 5.20833 7.21663 4.86667C6.87497 4.525 6.66666 4.05833 6.66666 3.54167C6.66666 2.50833 7.50832 1.66667 8.54166 1.66667H11.4583C11.975 1.66667 12.4417 1.875 12.7833 2.21667C13.125 2.55834 13.3333 3.025 13.3333 3.54167Z" stroke="#292D32" stroke-width="1.5" stroke-linecap="round" stroke-linejoin="round"/>
<path d="M6.66666 10.8333H9.99999" stroke="#292D32" stroke-width="1.5" stroke-linecap="round" stroke-linejoin="round"/>
<path d="M6.66666 14.1667H13.3333" stroke="#292D32" stroke-width="1.5" stroke-linecap="round" stroke-linejoin="round"/>
</svg>
