<svg width="24" height="24" viewBox="0 0 24 24" fill="none" xmlns="http://www.w3.org/2000/svg">
<path d="M0 8.48438H4.3125V9.89062H0V8.48438Z" fill="white"/>
<path d="M4.3125 4.26562H0.703125C0.314758 4.26562 0 4.58038 0 4.96875V7.07812H4.3125V4.26562Z" fill="white"/>
<path d="M4.3125 15.5156V11.2969H0V20.4375C0 20.8259 0.314758 21.1406 0.703125 21.1406H7.73438C8.12274 21.1406 8.4375 20.8259 8.4375 20.4375V18.3281H7.125C5.5741 18.3281 4.3125 17.0665 4.3125 15.5156ZM4.21875 19.7346C3.83038 19.7346 3.51562 19.4196 3.51562 19.0314C3.51562 18.6431 3.83038 18.3283 4.21875 18.3283C4.60712 18.3283 4.92188 18.6431 4.92188 19.0314C4.92188 19.4196 4.60712 19.7346 4.21875 19.7346Z" fill="white"/>
<path d="M22.5938 2.85938H7.125C6.34955 2.85938 5.71875 3.49017 5.71875 4.26562V15.5156C5.71875 16.2911 6.34955 16.9219 7.125 16.9219H12.0469V19.7344H10.6406C10.2523 19.7344 9.9375 20.0491 9.9375 20.4375C9.9375 20.8259 10.2523 21.1406 10.6406 21.1406H19.0781C19.4665 21.1406 19.7812 20.8259 19.7812 20.4375C19.7812 20.0491 19.4665 19.7344 19.0781 19.7344H17.6719V16.9219H22.5938C23.3692 16.9219 24 16.2911 24 15.5156V4.26562C24 3.49017 23.3692 2.85938 22.5938 2.85938Z" fill="white"/>
</svg>
