<svg width="24" height="20" viewBox="0 0 24 20" fill="none" xmlns="http://www.w3.org/2000/svg">
<path d="M22.5938 0.859375H7.125C6.34955 0.859375 5.71875 1.49017 5.71875 2.26562H0.703125C0.314758 2.26562 0 2.58038 0 2.96875V18.4375C0 18.8259 0.314758 19.1406 0.703125 19.1406H7.73438C8.12274 19.1406 8.4375 18.8259 8.4375 18.4375V14.9219H12.0469V17.7344H10.6406C10.2523 17.7344 9.9375 18.0491 9.9375 18.4375C9.9375 18.8259 10.2523 19.1406 10.6406 19.1406H19.0781C19.4665 19.1406 19.7812 18.8259 19.7812 18.4375C19.7812 18.0491 19.4665 17.7344 19.0781 17.7344H17.6719V14.9219H22.5938C23.3692 14.9219 24 14.2911 24 13.5156V2.26562C24 1.49017 23.3692 0.859375 22.5938 0.859375ZM1.40625 6.48438H5.71875V7.89062H1.40625V6.48438ZM5.71875 3.67188V5.07812H1.40625V3.67188H5.71875ZM1.40625 17.7344V9.29688H5.71875V13.5156C5.71875 14.2594 6.29938 14.8699 7.03125 14.9184V17.7344H1.40625ZM16.2656 17.7344H13.4531V14.9219H16.2656V17.7344ZM22.5938 13.5156H7.125V2.26562H22.5938V13.5156Z" fill="#113366"/>
</svg>
