<svg width="24" height="24" viewBox="0 0 24 24" fill="none" xmlns="http://www.w3.org/2000/svg">
<path d="M18.116 13.2452C17.53 13.2452 17.0417 13.7335 17.0417 14.3194V22.059C17.0417 22.645 17.53 23.1333 18.116 23.1333C18.702 23.1333 19.1903 22.645 19.1903 22.059V14.3439C19.2147 13.7335 18.7264 13.2452 18.116 13.2452Z" fill="#113366"/>
<path d="M23.9268 13.7824C23.9268 12.3663 23.6826 10.9746 23.1943 9.68063C22.7792 8.53312 22.1689 7.43444 21.412 6.45784C21.5097 6.2381 21.5829 5.99395 21.5829 5.77422C21.5829 5.35916 21.4364 4.96852 21.119 4.65112C19.8739 3.40596 18.4578 2.47818 16.9196 1.84339C15.3327 1.18419 13.648 0.866791 11.9634 0.866791C10.2787 0.866791 8.5941 1.18419 7.00712 1.84339C5.46897 2.47818 4.0529 3.40596 2.80773 4.65112C2.49034 4.96852 2.34385 5.35916 2.34385 5.77422C2.34385 6.01837 2.39268 6.2381 2.51475 6.45784C1.75788 7.43444 1.14751 8.53312 0.732452 9.68063C0.268566 10.9746 0 12.3663 0 13.7824V18.2015C0 19.3002 0.439471 20.3012 1.17192 21.0336C1.75788 21.6196 2.51475 22.0102 3.36928 22.1567V14.2707V14.2462C2.53917 14.3683 1.80671 14.759 1.24517 15.2961V13.7579C1.24517 12.4884 1.4649 11.2432 1.90437 10.0713C2.2706 9.04583 2.80773 8.09365 3.46694 7.23912C3.63784 7.28795 3.80875 7.31237 3.97965 7.31237C4.37029 7.31237 4.76094 7.16587 5.05392 6.89731C5.07833 6.87289 5.07833 6.87289 5.10275 6.84848C6.03052 5.92071 7.10478 5.21267 8.25229 4.72437C9.44863 4.23607 10.7182 3.99192 11.9878 3.99192C13.2574 3.99192 14.527 4.23607 15.7233 4.72437C16.8708 5.18826 17.9451 5.89629 18.8728 6.84848L18.8973 6.87289C19.2146 7.16587 19.6053 7.33678 20.0203 7.33678C20.1912 7.33678 20.3622 7.31237 20.5331 7.26354C21.1923 8.11806 21.705 9.09466 22.0956 10.0957C22.5107 11.2676 22.7548 12.5128 22.7548 13.7824V15.3205C22.1689 14.7834 21.4364 14.3927 20.6307 14.2707V14.2951V22.1567C21.4852 22.0346 22.2421 21.6196 22.8281 21.0336C23.5605 20.3012 24 19.3246 24 18.2015V13.7824H23.9268Z" fill="#113366"/>
<path d="M5.81071 13.2452C5.22475 13.2452 4.73645 13.7335 4.73645 14.3194V22.059C4.73645 22.645 5.22475 23.1333 5.81071 23.1333C6.39667 23.1333 6.88497 22.645 6.88497 22.059V14.3439C6.88497 13.7335 6.39667 13.2452 5.81071 13.2452Z" fill="#113366"/>
</svg>
