<svg width="24" height="24" viewBox="0 0 24 24" fill="none" xmlns="http://www.w3.org/2000/svg">
<g clip-path="url(#clip0)">
<path d="M24 13.7932C24 12.393 23.7544 10.9928 23.2631 9.69084C22.8454 8.53629 22.2313 7.43086 21.4698 6.44826C21.5681 6.22718 21.6418 5.98153 21.6418 5.76044C21.6418 5.3674 21.4944 4.9498 21.175 4.63045C19.9468 3.4022 18.4974 2.46873 16.9744 1.83004C15.3777 1.16679 13.7073 0.847443 12.0123 0.847443C10.3173 0.847443 8.64688 1.16679 7.05015 1.83004C5.52712 2.46873 4.10235 3.4022 2.84954 4.63045C2.53019 4.9498 2.3828 5.34284 2.3828 5.76044C2.3828 6.00609 2.43193 6.22718 2.53019 6.44826C1.76868 7.43086 1.15455 8.51172 0.73695 9.69084C0.270215 10.9928 0 12.393 0 13.7932V18.2149C0 19.3203 0.44217 20.3029 1.17912 21.0399C1.79324 21.654 2.62845 22.0716 3.56192 22.1944C3.63562 22.3664 3.75844 22.5138 3.88127 22.6366C4.20061 22.9559 4.61822 23.1279 5.08495 23.1279C5.55169 23.1279 5.96929 22.9314 6.28864 22.6366C6.60798 22.3172 6.77994 21.8996 6.77994 21.4329V15.0214C6.77994 14.5793 6.60798 14.1617 6.3132 13.8669C6.3132 13.8423 6.28864 13.8423 6.26407 13.8178C5.94473 13.4984 5.52712 13.3265 5.06039 13.3265C4.59365 13.3265 4.17605 13.523 3.8567 13.8178C3.73388 13.9406 3.61105 14.088 3.53736 14.2599C2.65302 14.3582 1.84237 14.7512 1.22825 15.3408V13.7932C1.22825 12.5158 1.44933 11.2876 1.86694 10.1084C2.23541 9.10128 2.75128 8.14325 3.41453 7.25891C3.58649 7.30804 3.75844 7.3326 3.90583 7.3326C4.29887 7.3326 4.69191 7.18521 4.98669 6.915C5.01126 6.89043 5.01126 6.89043 5.03582 6.86587C5.96929 5.9324 7.05015 5.22001 8.20471 4.75328C9.40839 4.26198 10.6612 4.01633 11.9386 4.01633C13.216 4.01633 14.4933 4.26198 15.6725 4.75328C16.827 5.22001 17.8833 5.9324 18.8168 6.86587L18.8414 6.89043C19.1607 7.18521 19.5537 7.35717 19.9468 7.35717C20.1187 7.35717 20.2907 7.3326 20.4381 7.28347C21.1013 8.14325 21.6172 9.10128 21.9857 10.133C22.4033 11.2876 22.6244 12.5404 22.6244 13.8178V15.3654C22.0102 14.7758 21.347 14.3828 20.4626 14.2845C20.3889 14.1371 20.2907 13.9897 20.1679 13.8669C20.1679 13.8423 20.1433 13.8423 20.1187 13.8178C19.7994 13.4984 19.3818 13.3265 18.915 13.3265C18.4483 13.3265 18.0307 13.523 17.7114 13.8178C17.392 14.1371 17.2201 14.5547 17.2201 15.0214V21.4575C17.2201 21.9242 17.4166 22.3418 17.7114 22.6612C18.0307 22.9805 18.4483 23.1525 18.915 23.1525C19.3818 23.1525 19.7994 22.9559 20.1187 22.6612C20.2416 22.5383 20.3644 22.3909 20.4381 22.219C21.3715 22.1207 22.0594 21.7031 22.6735 21.0644C23.3859 20.352 24 19.3449 24 18.2395V13.7932ZM4.66735 15.0214C4.66735 14.8986 4.71648 14.7758 4.81474 14.7021C4.88843 14.6284 5.01126 14.5547 5.13408 14.5547C5.25691 14.5547 5.37973 14.6038 5.45343 14.7021L5.47799 14.7267C5.55169 14.8004 5.60082 14.9232 5.60082 15.0214V21.4575C5.60082 21.5803 5.55169 21.7031 5.47799 21.7768C5.4043 21.8505 5.28147 21.8996 5.15865 21.8996C5.03582 21.8996 4.88843 21.8505 4.81474 21.7768C4.74104 21.7031 4.69191 21.5803 4.66735 21.4575V15.0214V15.0214ZM2.11259 16.2743C2.48106 15.9058 2.92323 15.6601 3.4391 15.5373V20.917C2.92323 20.7942 2.48106 20.5486 2.11259 20.1801C1.62129 19.6888 1.30194 19.001 1.30194 18.2395C1.30194 17.4534 1.62129 16.7901 2.11259 16.2743ZM20.3153 6.03066C20.2416 6.10435 20.1433 6.12892 20.0696 6.12892C19.9713 6.12892 19.8976 6.10435 19.824 6.03066C18.7677 4.97436 17.564 4.18828 16.262 3.64785C14.911 3.08286 13.4862 2.81264 12.0368 2.81264C10.6121 2.81264 9.16274 3.08286 7.81167 3.64785C6.50972 4.18828 5.30604 4.97436 4.24974 6.03066L4.22518 6.05522C4.15148 6.10435 4.07779 6.12892 4.00409 6.12892C3.90583 6.12892 3.83214 6.10435 3.75844 6.03066C3.68475 5.95696 3.66018 5.88327 3.66018 5.78501C3.66018 5.68675 3.68475 5.61305 3.75844 5.53936C4.88843 4.40937 6.16581 3.57416 7.54145 3.00916C8.96622 2.4196 10.4893 2.12482 12.0368 2.12482C13.5844 2.12482 15.0829 2.4196 16.5322 3.00916C17.9079 3.57416 19.1853 4.43393 20.3153 5.53936C20.3889 5.61305 20.4135 5.68675 20.4135 5.78501C20.4135 5.8587 20.3889 5.95696 20.3153 6.03066ZM19.4309 18.2395V21.4575C19.4309 21.5803 19.3818 21.7031 19.3081 21.7768C19.2344 21.8505 19.087 21.8996 18.9642 21.8996C18.8414 21.8996 18.7185 21.8505 18.6448 21.7768C18.5711 21.7031 18.4974 21.5803 18.4974 21.4575V15.0214C18.4974 14.8986 18.5466 14.7758 18.6448 14.7021C18.7185 14.6284 18.8414 14.5547 18.9642 14.5547C19.087 14.5547 19.2098 14.6038 19.2835 14.7021L19.3081 14.7267C19.3818 14.8004 19.4309 14.9232 19.4309 15.0214V18.2395V18.2395ZM21.9611 20.1801C21.5926 20.5486 21.1505 20.7942 20.6346 20.917V18.2395V15.5373C21.1505 15.6601 21.5926 15.9058 21.9611 16.2743C22.4524 16.7656 22.7718 17.4534 22.7718 18.2149C22.7718 19.001 22.4524 19.6888 21.9611 20.1801Z" fill="#113366"/>
</g>
<defs>
<clipPath id="clip0">
<rect width="24" height="24" fill="white"/>
</clipPath>
</defs>
</svg>
