<svg width="24" height="18" viewBox="0 0 24 18" fill="none" xmlns="http://www.w3.org/2000/svg">
<path d="M3.70377 14.9019H20.2965C21.2786 14.9019 22.0779 14.1031 22.0779 13.1205V1.85985C22.0779 0.877289 21.2786 0.0784912 20.2965 0.0784912H3.70377C2.72162 0.0784912 1.92236 0.877289 1.92236 1.85985V13.1205C1.92241 14.1031 2.72167 14.9019 3.70377 14.9019ZM3.57322 1.85985C3.57322 1.78813 3.63165 1.72929 3.70377 1.72929H20.2965C20.3686 1.72929 20.427 1.78813 20.427 1.85985V13.1205C20.427 13.1922 20.3686 13.2511 20.2965 13.2511H3.70377C3.63165 13.2511 3.57322 13.1922 3.57322 13.1205V1.85985Z" fill="#113366"/>
<path d="M23.3523 15.5775H0.647701C0.289817 15.5775 0 15.8676 0 16.2255C0 17.1621 0.759287 17.9215 1.69635 17.9215H22.3035C23.2407 17.9215 23.9999 17.1621 23.9999 16.2255C24 15.8676 23.7102 15.5775 23.3523 15.5775Z" fill="#113366"/>
<path d="M10.7708 9.27327C10.8003 9.35864 10.8765 9.4191 10.9664 9.42873C11.0558 9.43766 11.1429 9.3949 11.1896 9.31755L11.7389 8.41072L13.4437 10.1156C13.4873 10.1591 13.5465 10.1833 13.6082 10.1833C13.6698 10.1833 13.7291 10.1591 13.7727 10.1156L14.6246 9.26278C14.7154 9.17163 14.7154 9.02495 14.6246 8.9339L12.9202 7.2299L13.8279 6.68019C13.9048 6.63337 13.9484 6.54628 13.9386 6.45681C13.9294 6.36663 13.869 6.29091 13.7839 6.26098L9.617 4.81012C9.5324 4.78116 9.43887 4.80211 9.37598 4.86576C9.31268 4.92865 9.29138 5.02218 9.32034 5.10678L10.7708 9.27327Z" fill="#113366"/>
</svg>
