<svg width="24" height="24" viewBox="0 0 24 24" fill="none" xmlns="http://www.w3.org/2000/svg">
<path d="M17.35 0H6.65008C5.75865 0 5.02905 0.728914 5.02905 1.62103V22.3783C5.02905 23.2704 5.75865 24 6.65008 24H17.35C18.2414 24 18.971 23.2718 18.971 22.379V1.62103C18.971 0.728914 18.2414 0 17.35 0ZM10.2885 1.16846H13.7116C13.8199 1.16846 13.9077 1.25623 13.9077 1.36526C13.9077 1.4736 13.8199 1.56137 13.7116 1.56137H10.2885C10.1801 1.56137 10.0924 1.4736 10.0924 1.36526C10.0924 1.25623 10.1801 1.16846 10.2885 1.16846ZM12 23.1895C11.5523 23.1895 11.1895 22.8267 11.1895 22.3783C11.1895 21.9298 11.5523 21.5678 12 21.5678C12.4478 21.5678 12.8105 21.9298 12.8105 22.3783C12.8105 22.8267 12.4478 23.1895 12 23.1895ZM17.843 21H6.15705V2.57074H17.843V21Z" fill="#113366"/>
<rect x="7" y="3.29999" width="10" height="17" fill="#113366"/>
</svg>
