<svg width="20" height="20" viewBox="0 0 20 20" fill="none" xmlns="http://www.w3.org/2000/svg">
<path d="M17.5667 7.15003V12.85C17.5667 13.7833 17.0667 14.65 16.2584 15.125L11.3084 17.9834C10.5 18.45 9.50005 18.45 8.68338 17.9834L3.73338 15.125C2.92505 14.6584 2.42505 13.7917 2.42505 12.85V7.15003C2.42505 6.21669 2.92505 5.34999 3.73338 4.87499L8.68338 2.01666C9.49172 1.55 10.4917 1.55 11.3084 2.01666L16.2584 4.87499C17.0667 5.34999 17.5667 6.20836 17.5667 7.15003Z" stroke="#F53F85" stroke-width="1.5" stroke-linecap="round" stroke-linejoin="round"/>
<path d="M9.99989 9.16667C11.0722 9.16667 11.9416 8.29734 11.9416 7.22499C11.9416 6.15263 11.0722 5.28336 9.99989 5.28336C8.92754 5.28336 8.05823 6.15263 8.05823 7.22499C8.05823 8.29734 8.92754 9.16667 9.99989 9.16667Z" stroke="#F53F85" stroke-width="1.5" stroke-linecap="round" stroke-linejoin="round"/>
<path d="M13.3333 13.8833C13.3333 12.3833 11.8416 11.1667 9.99996 11.1667C8.15829 11.1667 6.66663 12.3833 6.66663 13.8833" stroke="#F53F85" stroke-width="1.5" stroke-linecap="round" stroke-linejoin="round"/>
</svg>
