<svg width="20" height="20" viewBox="0 0 20 20" fill="none" xmlns="http://www.w3.org/2000/svg">
<path d="M2.50833 9.35001V13.0917C2.50833 16.8333 4.00833 18.3333 7.75 18.3333H12.2417C15.9833 18.3333 17.4833 16.8333 17.4833 13.0917V9.35001" stroke="#292D32" stroke-width="1.5" stroke-linecap="round" stroke-linejoin="round"/>
<path d="M9.99999 10C11.525 10 12.65 8.75834 12.5 7.23334L11.95 1.66667H8.05832L7.49999 7.23334C7.34999 8.75834 8.47499 10 9.99999 10Z" stroke="#292D32" stroke-width="1.5" stroke-linecap="round" stroke-linejoin="round"/>
<path d="M15.2583 10C16.9417 10 18.175 8.63334 18.0083 6.95834L17.775 4.66667C17.475 2.50001 16.6417 1.66667 14.4583 1.66667H11.9167L12.5 7.50834C12.6417 8.88334 13.8833 10 15.2583 10Z" stroke="#292D32" stroke-width="1.5" stroke-linecap="round" stroke-linejoin="round"/>
<path d="M4.69999 10C6.07499 10 7.31666 8.88334 7.44999 7.50834L7.63333 5.66667L8.03333 1.66667H5.49166C3.30833 1.66667 2.47499 2.50001 2.17499 4.66667L1.94999 6.95834C1.78333 8.63334 3.01666 10 4.69999 10Z" stroke="#292D32" stroke-width="1.5" stroke-linecap="round" stroke-linejoin="round"/>
<path d="M9.99999 14.1667C8.60832 14.1667 7.91666 14.8583 7.91666 16.25V18.3333H12.0833V16.25C12.0833 14.8583 11.3917 14.1667 9.99999 14.1667Z" stroke="#292D32" stroke-width="1.5" stroke-linecap="round" stroke-linejoin="round"/>
</svg>
