<svg width="20" height="20" viewBox="0 0 20 20" fill="none" xmlns="http://www.w3.org/2000/svg">
<path d="M14.1333 5.14166C15.8 6.3 16.95 8.14166 17.1833 10.2667" stroke="#113366" stroke-width="1.5" stroke-linecap="round" stroke-linejoin="round"/>
<path d="M2.90833 10.3083C3.12499 8.19165 4.25833 6.34999 5.90833 5.18332" stroke="#113366" stroke-width="1.5" stroke-linecap="round" stroke-linejoin="round"/>
<path d="M6.82495 17.45C7.79162 17.9417 8.89162 18.2167 10.05 18.2167C11.1666 18.2167 12.2166 17.9667 13.1583 17.5083" stroke="#113366" stroke-width="1.5" stroke-linecap="round" stroke-linejoin="round"/>
<path d="M10.0499 6.41666C11.3294 6.41666 12.3666 5.37945 12.3666 4.09999C12.3666 2.82053 11.3294 1.78333 10.0499 1.78333C8.77048 1.78333 7.73328 2.82053 7.73328 4.09999C7.73328 5.37945 8.77048 6.41666 10.0499 6.41666Z" stroke="#113366" stroke-width="1.5" stroke-linecap="round" stroke-linejoin="round"/>
<path d="M4.02504 16.6C5.3045 16.6 6.34171 15.5628 6.34171 14.2833C6.34171 13.0039 5.3045 11.9667 4.02504 11.9667C2.74558 11.9667 1.70837 13.0039 1.70837 14.2833C1.70837 15.5628 2.74558 16.6 4.02504 16.6Z" stroke="#113366" stroke-width="1.5" stroke-linecap="round" stroke-linejoin="round"/>
<path d="M15.975 16.6C17.2545 16.6 18.2917 15.5628 18.2917 14.2833C18.2917 13.0039 17.2545 11.9667 15.975 11.9667C14.6955 11.9667 13.6583 13.0039 13.6583 14.2833C13.6583 15.5628 14.6955 16.6 15.975 16.6Z" stroke="#113366" stroke-width="1.5" stroke-linecap="round" stroke-linejoin="round"/>
</svg>
