<svg width="16" height="16" viewBox="0 0 16 16" fill="none" xmlns="http://www.w3.org/2000/svg">
<path d="M9.15327 2.34L10.3266 4.68667C10.4866 5.01334 10.9133 5.32667 11.2733 5.38667L13.3999 5.74C14.7599 5.96667 15.0799 6.95334 14.0999 7.92667L12.4466 9.58C12.1666 9.86 12.0133 10.4 12.0999 10.7867L12.5733 12.8333C12.9466 14.4533 12.0866 15.08 10.6533 14.2333L8.65994 13.0533C8.29994 12.84 7.70661 12.84 7.33994 13.0533L5.34661 14.2333C3.91994 15.08 3.05327 14.4467 3.42661 12.8333L3.89994 10.7867C3.98661 10.4 3.83327 9.86 3.55327 9.58L1.89994 7.92667C0.926606 6.95334 1.23994 5.96667 2.59994 5.74L4.72661 5.38667C5.07994 5.32667 5.50661 5.01334 5.66661 4.68667L6.83994 2.34C7.47994 1.06667 8.51994 1.06667 9.15327 2.34Z" stroke="#F5C61C" stroke-width="1.5" stroke-linecap="round" stroke-linejoin="round"/>
</svg>
