<svg width="22" height="18" viewBox="0 0 22 18" fill="none" xmlns="http://www.w3.org/2000/svg">
<path d="M20.75 11.25C20.9489 11.25 21.1397 11.171 21.2803 11.0303C21.421 10.8897 21.5 10.6989 21.5 10.5V0.75C21.5 0.551088 21.421 0.360322 21.2803 0.21967C21.1397 0.0790178 20.9489 0 20.75 0H18.5C18.3011 0 18.1103 0.0790178 17.9697 0.21967C17.829 0.360322 17.75 0.551088 17.75 0.75V10.5C17.75 10.6989 17.829 10.8897 17.9697 11.0303C18.1103 11.171 18.3011 11.25 18.5 11.25H18.875V12H13.25V11.25H16.25C16.4489 11.25 16.6397 11.171 16.7803 11.0303C16.921 10.8897 17 10.6989 17 10.5V4.5C17 4.30109 16.921 4.11032 16.7803 3.96967C16.6397 3.82902 16.4489 3.75 16.25 3.75H5.75C5.55109 3.75 5.36032 3.82902 5.21967 3.96967C5.07902 4.11032 5 4.30109 5 4.5V10.5C5 10.6989 5.07902 10.8897 5.21967 11.0303C5.36032 11.171 5.55109 11.25 5.75 11.25H8.75V12H3.125V11.25H3.5C3.69891 11.25 3.88968 11.171 4.03033 11.0303C4.17098 10.8897 4.25 10.6989 4.25 10.5V0.75C4.25 0.551088 4.17098 0.360322 4.03033 0.21967C3.88968 0.0790178 3.69891 0 3.5 0H1.25C1.05109 0 0.860322 0.0790178 0.71967 0.21967C0.579018 0.360322 0.5 0.551088 0.5 0.75V10.5C0.5 10.6989 0.579018 10.8897 0.71967 11.0303C0.860322 11.171 1.05109 11.25 1.25 11.25H1.625V12H1.25C1.05109 12 0.860322 12.079 0.71967 12.2197C0.579018 12.3603 0.5 12.5511 0.5 12.75V17.25C0.5 17.4489 0.579018 17.6397 0.71967 17.7803C0.860322 17.921 1.05109 18 1.25 18H20.75C20.9489 18 21.1397 17.921 21.2803 17.7803C21.421 17.6397 21.5 17.4489 21.5 17.25V12.75C21.5 12.5511 21.421 12.3603 21.2803 12.2197C21.1397 12.079 20.9489 12 20.75 12H20.375V11.25H20.75ZM10.25 11.25H11.75V12H10.25V11.25ZM6.5 15.75H5.75C5.55109 15.75 5.36032 15.671 5.21967 15.5303C5.07902 15.3897 5 15.1989 5 15C5 14.8011 5.07902 14.6103 5.21967 14.4697C5.36032 14.329 5.55109 14.25 5.75 14.25H6.5C6.69891 14.25 6.88968 14.329 7.03033 14.4697C7.17098 14.6103 7.25 14.8011 7.25 15C7.25 15.1989 7.17098 15.3897 7.03033 15.5303C6.88968 15.671 6.69891 15.75 6.5 15.75ZM16.25 15.75H15.5C15.3011 15.75 15.1103 15.671 14.9697 15.5303C14.829 15.3897 14.75 15.1989 14.75 15C14.75 14.8011 14.829 14.6103 14.9697 14.4697C15.1103 14.329 15.3011 14.25 15.5 14.25H16.25C16.4489 14.25 16.6397 14.329 16.7803 14.4697C16.921 14.6103 17 14.8011 17 15C17 15.1989 16.921 15.3897 16.7803 15.5303C16.6397 15.671 16.4489 15.75 16.25 15.75Z" fill="#113366"/>
</svg>
