<svg width="24" height="24" viewBox="0 0 24 24" fill="none" xmlns="http://www.w3.org/2000/svg">
<path d="M21.75 14.25C21.9489 14.25 22.1397 14.171 22.2803 14.0303C22.421 13.8897 22.5 13.6989 22.5 13.5V3.75C22.5 3.55109 22.421 3.36032 22.2803 3.21967C22.1397 3.07902 21.9489 3 21.75 3H19.5C19.3011 3 19.1103 3.07902 18.9697 3.21967C18.829 3.36032 18.75 3.55109 18.75 3.75V13.5C18.75 13.6989 18.829 13.8897 18.9697 14.0303C19.1103 14.171 19.3011 14.25 19.5 14.25H19.875V15H14.25V14.25H17.25C17.4489 14.25 17.6397 14.171 17.7803 14.0303C17.921 13.8897 18 13.6989 18 13.5V7.5C18 7.30109 17.921 7.11032 17.7803 6.96967C17.6397 6.82902 17.4489 6.75 17.25 6.75H6.75C6.55109 6.75 6.36032 6.82902 6.21967 6.96967C6.07902 7.11032 6 7.30109 6 7.5V13.5C6 13.6989 6.07902 13.8897 6.21967 14.0303C6.36032 14.171 6.55109 14.25 6.75 14.25H9.75V15H4.125V14.25H4.5C4.69891 14.25 4.88968 14.171 5.03033 14.0303C5.17098 13.8897 5.25 13.6989 5.25 13.5V3.75C5.25 3.55109 5.17098 3.36032 5.03033 3.21967C4.88968 3.07902 4.69891 3 4.5 3H2.25C2.05109 3 1.86032 3.07902 1.71967 3.21967C1.57902 3.36032 1.5 3.55109 1.5 3.75V13.5C1.5 13.6989 1.57902 13.8897 1.71967 14.0303C1.86032 14.171 2.05109 14.25 2.25 14.25H2.625V15H2.25C2.05109 15 1.86032 15.079 1.71967 15.2197C1.57902 15.3603 1.5 15.5511 1.5 15.75V20.25C1.5 20.4489 1.57902 20.6397 1.71967 20.7803C1.86032 20.921 2.05109 21 2.25 21H21.75C21.9489 21 22.1397 20.921 22.2803 20.7803C22.421 20.6397 22.5 20.4489 22.5 20.25V15.75C22.5 15.5511 22.421 15.3603 22.2803 15.2197C22.1397 15.079 21.9489 15 21.75 15H21.375V14.25H21.75ZM3 4.5H3.75V12.75H3V4.5ZM7.5 8.25H16.5V12.75H7.5V8.25ZM11.25 14.25H12.75V15H11.25V14.25ZM3 16.5H11.25V19.5H3V16.5ZM21 19.5H12.75V16.5H21V19.5ZM20.25 4.5H21V12.75H20.25V4.5ZM8.25 18C8.25 18.1989 8.17098 18.3897 8.03033 18.5303C7.88968 18.671 7.69891 18.75 7.5 18.75H6.75C6.55109 18.75 6.36032 18.671 6.21967 18.5303C6.07902 18.3897 6 18.1989 6 18C6 17.8011 6.07902 17.6103 6.21967 17.4697C6.36032 17.329 6.55109 17.25 6.75 17.25H7.5C7.69891 17.25 7.88968 17.329 8.03033 17.4697C8.17098 17.6103 8.25 17.8011 8.25 18ZM18 18C18 18.1989 17.921 18.3897 17.7803 18.5303C17.6397 18.671 17.4489 18.75 17.25 18.75H16.5C16.3011 18.75 16.1103 18.671 15.9697 18.5303C15.829 18.3897 15.75 18.1989 15.75 18C15.75 17.8011 15.829 17.6103 15.9697 17.4697C16.1103 17.329 16.3011 17.25 16.5 17.25H17.25C17.4489 17.25 17.6397 17.329 17.7803 17.4697C17.921 17.6103 18 17.8011 18 18Z" fill="#113366"/>
</svg>
