<svg width="24" height="24" viewBox="0 0 24 24" fill="none" xmlns="http://www.w3.org/2000/svg">
<path d="M22.3594 1.12491H1.64062C0.735984 1.12491 0 1.86089 0 2.76553V16.3238C0 17.2284 0.735984 17.9644 1.64062 17.9644H11.3203V19.8223L3.50991 21.4841C3.13008 21.5649 2.88769 21.9383 2.9685 22.3182C3.03881 22.6487 3.33066 22.8751 3.6555 22.8751C3.70397 22.8751 3.75323 22.8701 3.80255 22.8596L7.03491 22.1718L12.0099 21.1133L17.0582 22.1718L20.3401 22.86C20.72 22.9397 21.0929 22.6963 21.1725 22.3161C21.2522 21.9361 21.0088 21.5633 20.6287 21.4837L12.7266 19.8267V17.9643H22.3594C23.264 17.9643 24 17.2283 24 16.3237V2.76553C24 1.86094 23.264 1.12491 22.3594 1.12491V1.12491ZM22.3594 16.5581H1.64062C1.51139 16.5581 1.40625 16.453 1.40625 16.3238V14.881H22.5938V16.3238C22.5938 16.453 22.4886 16.5581 22.3594 16.5581ZM1.40625 13.4747V2.76553C1.40625 2.6363 1.51139 2.53116 1.64062 2.53116H22.3594C22.4886 2.53116 22.5938 2.6363 22.5938 2.76553V13.4747H1.40625Z" fill="#113366"/>
</svg>
