<svg width="24" height="24" viewBox="0 0 24 24" fill="none" xmlns="http://www.w3.org/2000/svg">
<path d="M0 14.881V16.3238C0 17.2284 0.735984 17.9644 1.64062 17.9644H11.3203V19.8223L3.50991 21.484C3.13008 21.5649 2.88769 21.9382 2.9685 22.3181C3.03881 22.6486 3.33066 22.8751 3.6555 22.875C3.70397 22.875 3.75323 22.87 3.80255 22.8595L7.03491 22.1718L12.0099 21.1133L17.0582 22.1718L20.3401 22.86C20.72 22.9396 21.0929 22.6962 21.1725 22.3161C21.2522 21.9361 21.0088 21.5633 20.6287 21.4837L12.7266 19.8267V17.9644H22.3594C23.264 17.9644 24 17.2284 24 16.3238V14.881H0Z" fill="#113366"/>
<path d="M24 13.4747V2.76562C24 1.86098 23.264 1.125 22.3594 1.125H1.64062C0.735984 1.125 0 1.86098 0 2.76562V13.4747H24Z" fill="#113366"/>
</svg>
