<svg width="24" height="24" viewBox="0 0 24 24" fill="none" xmlns="http://www.w3.org/2000/svg">
<g clip-path="url(#clip0)">
<path d="M10.0293 5.39355H3.61885C1.77605 5.39355 0.276855 6.89275 0.276855 8.73551V15.1459C0.276855 16.9887 1.77605 18.4879 3.61885 18.4879H10.0293C11.8721 18.4879 13.3713 16.9887 13.3713 15.1459V8.73551C13.3713 6.89275 11.8721 5.39355 10.0293 5.39355Z" fill="#113366"/>
<path d="M16.1406 3.08378C15.4304 3.08378 14.7059 3.48467 14.0369 4.23316C15.1584 5.96436 16.0328 8.59039 16.0672 11.8085C16.6297 16.7825 23.7201 16.5 23.7201 11.1448C23.7201 11.1263 23.7216 11.1082 23.7229 11.09C23.5923 8.29214 22.8611 5.68128 21.6306 3.65909C20.7378 2.19179 19.6461 1.13473 18.4422 0.544861C18.5756 1.91252 17.4968 3.08378 16.1406 3.08378ZM19.9068 11.5622C20.6155 11.5622 21.1901 12.1368 21.1901 12.8456C21.1901 13.5544 20.6155 14.129 19.9068 14.129C19.198 14.129 18.6234 13.5544 18.6234 12.8456C18.6234 12.1368 19.198 11.5622 19.9068 11.5622Z" fill="#113366"/>
<path d="M15.8 15.0572C15.5022 16.7098 14.9353 18.38 14.0369 19.7668C14.7059 20.5153 15.4303 20.9162 16.1406 20.9162C17.4985 20.9162 18.5755 22.089 18.4422 23.4551C21.2206 22.0938 22.8102 18.6305 23.4041 15.5869C21.2599 17.4628 17.7439 17.3558 15.8 15.0572Z" fill="#113366"/>
<path d="M10.0292 3.85169C10.7568 3.85169 11.4476 4.01185 12.0685 4.2984C13.1993 2.51906 14.6398 1.54189 16.1404 1.54189C16.5662 1.54189 16.9114 1.19675 16.9114 0.770945C16.9114 0.345142 16.5662 0 16.1404 0H10.0073C7.54915 0 5.63644 1.73342 4.40283 3.85169H10.0292Z" fill="#113366"/>
<path d="M16.1406 22.4581C14.6143 22.4581 13.1504 21.4467 12.0111 19.6092C11.4051 19.8793 10.7345 20.0298 10.0293 20.0298H4.33533C5.56951 22.206 7.50767 24 10.0074 24H16.1405C16.5663 24 16.9115 23.6548 16.9115 23.229C16.9115 22.8032 16.5663 22.4581 16.1406 22.4581Z" fill="#113366"/>
</g>
<defs>
<clipPath id="clip0">
<rect width="24" height="24" fill="white"/>
</clipPath>
</defs>
</svg>
