<svg width="24" height="24" viewBox="0 0 24 24" fill="none" xmlns="http://www.w3.org/2000/svg">
<g clip-path="url(#clip0)">
<path d="M19.8956 13.0903C20.3459 13.0903 20.7109 12.7252 20.7109 12.275C20.7109 11.8247 20.3459 11.4597 19.8956 11.4597C19.4453 11.4597 19.0803 11.8247 19.0803 12.275C19.0803 12.7253 19.4453 13.0903 19.8956 13.0903Z" fill="#113366"/>
<path d="M21.6194 3.6591C20.1836 1.29952 18.2339 0 16.1293 0H9.99623C6.96892 0 4.7909 2.59987 3.63198 5.39358C1.72009 5.39358 0.265747 6.92839 0.265747 8.73553V15.1459C0.265747 16.9805 1.75184 18.4741 3.58341 18.4873C4.7405 21.3517 6.94146 24 9.99623 24H16.1293C18.2339 24 20.1836 22.7005 21.6194 20.3409C24.4389 15.7074 24.4399 8.29426 21.6194 3.6591V3.6591ZM20.3022 4.46059C21.5203 6.46245 22.1912 9.13994 22.1912 12C22.1912 13.6316 21.1349 14.5377 19.8801 14.5377C18.305 14.5377 17.6 13.2631 17.6 12C17.6 7.95928 16.3465 4.25836 14.2795 2.05303C16.6214 0.721171 18.8773 2.1188 20.3022 4.46059V4.46059ZM9.99623 1.54189H12.3642C11.2139 2.5686 10.356 3.96907 9.76514 5.39358H5.31929C6.24664 3.46236 7.85512 1.54189 9.99623 1.54189ZM1.80764 15.1459V8.73553C1.80764 7.74294 2.61515 6.93547 3.60775 6.93547H10.0182C11.0107 6.93547 11.8183 7.74299 11.8183 8.73553V15.1459C11.8183 16.1385 11.0107 16.946 10.0182 16.946H3.60775C2.61515 16.946 1.80764 16.1385 1.80764 15.1459V15.1459ZM9.99623 22.4581C7.81701 22.4581 6.18839 20.4713 5.26277 18.4879H9.71662C10.4556 20.317 11.4185 21.614 12.3642 22.4581H9.99623ZM11.2833 18.2384C12.5005 17.7386 13.3601 16.5411 13.3601 15.1459V8.73553C13.3601 7.35732 12.5214 6.17156 11.3277 5.66115C11.7584 4.7032 12.335 3.75889 13.0604 3.01097C17.0323 7.08576 17.0595 16.8862 13.0606 20.9889C12.3073 20.2123 11.7183 19.2297 11.2833 18.2384V18.2384ZM20.3022 19.5394C18.8702 21.8928 16.6131 23.2741 14.2795 21.947C15.798 20.3268 16.8766 17.8991 17.3426 15.1229C18.5706 16.2217 20.4051 16.3809 21.8255 15.5635C21.5094 17.0466 20.9942 18.4021 20.3022 19.5394V19.5394Z" fill="#113366"/>
</g>
<defs>
<clipPath id="clip0">
<rect width="24" height="24" fill="white"/>
</clipPath>
</defs>
</svg>
